<mxfile host="app.diagrams.net" modified="2022-02-15T19:20:13.230Z" agent="5.0 (Windows NT 10.0; Win64; x64) AppleWebKit/537.36 (KHTML, like Gecko) Chrome/98.0.4758.82 Safari/537.36" etag="fb-9oPlo_SR7fDSk2v6D" version="16.5.6" type="github">
  <diagram id="CCkLYrsb_5Sjs0_9Pe5c" name="Page-1">
    <mxGraphModel dx="1038" dy="1647" grid="1" gridSize="10" guides="1" tooltips="1" connect="1" arrows="1" fold="1" page="1" pageScale="1" pageWidth="850" pageHeight="1100" math="0" shadow="0">
      <root>
        <mxCell id="0" />
        <mxCell id="1" parent="0" />
        <mxCell id="FNEyyfUixkqxjhdoB9px-1" value="Internet Host&lt;br&gt;10.10.0.40&lt;br&gt;SSH Port 22" style="rounded=1;whiteSpace=wrap;html=1;" vertex="1" parent="1">
          <mxGeometry x="300" y="-110" width="120" height="60" as="geometry" />
        </mxCell>
        <mxCell id="FNEyyfUixkqxjhdoB9px-7" value="check tunnel works by going up to -p 25" style="text;html=1;align=center;verticalAlign=middle;resizable=0;points=[];autosize=1;strokeColor=none;fillColor=none;" vertex="1" parent="1">
          <mxGeometry x="550" y="80" width="230" height="20" as="geometry" />
        </mxCell>
        <mxCell id="FNEyyfUixkqxjhdoB9px-10" value="Bob&lt;br&gt;10.50.26.181&lt;br&gt;SSH Port 25" style="rounded=1;whiteSpace=wrap;html=1;" vertex="1" parent="1">
          <mxGeometry x="285" y="40" width="120" height="60" as="geometry" />
        </mxCell>
        <mxCell id="FNEyyfUixkqxjhdoB9px-11" value="" style="shape=flexArrow;endArrow=classic;html=1;rounded=0;exitX=0.5;exitY=1;exitDx=0;exitDy=0;" edge="1" parent="1" source="FNEyyfUixkqxjhdoB9px-10">
          <mxGeometry width="50" height="50" relative="1" as="geometry">
            <mxPoint x="400" y="230" as="sourcePoint" />
            <mxPoint x="345" y="250" as="targetPoint" />
          </mxGeometry>
        </mxCell>
        <mxCell id="FNEyyfUixkqxjhdoB9px-12" value="John&lt;br&gt;10.0.0.102&lt;br&gt;SSH Port 22" style="rounded=1;whiteSpace=wrap;html=1;" vertex="1" parent="1">
          <mxGeometry x="285" y="250" width="120" height="60" as="geometry" />
        </mxCell>
        <mxCell id="FNEyyfUixkqxjhdoB9px-13" value="Mike&lt;br&gt;10.0.0.102&lt;br&gt;SSH Port 22" style="rounded=1;whiteSpace=wrap;html=1;" vertex="1" parent="1">
          <mxGeometry x="285" y="430" width="120" height="60" as="geometry" />
        </mxCell>
        <mxCell id="FNEyyfUixkqxjhdoB9px-14" value="Local Binds:&lt;br&gt;2222 John&lt;br&gt;3333 Mike&lt;br&gt;9999 James" style="text;html=1;align=center;verticalAlign=middle;resizable=0;points=[];autosize=1;strokeColor=none;fillColor=none;" vertex="1" parent="1">
          <mxGeometry x="430" y="-115" width="80" height="60" as="geometry" />
        </mxCell>
        <mxCell id="FNEyyfUixkqxjhdoB9px-15" value="James&lt;br&gt;10.0.0.104&lt;br&gt;SSH Port 22&lt;br&gt;ONLY at port 80" style="rounded=1;whiteSpace=wrap;html=1;" vertex="1" parent="1">
          <mxGeometry x="285" y="580" width="120" height="60" as="geometry" />
        </mxCell>
        <mxCell id="FNEyyfUixkqxjhdoB9px-2" value="Tunnel through Bob to John&lt;br&gt;ssh bob@10.50.26.181 -p 25 -L 2222:10.0.0.102:22 -NT&lt;br&gt;Establish local bind (on internet host) at 2222 that creates a tunnel through Bob (10.50.26.181), whose ssh is on 25&lt;br&gt;on the other end of the tunnel we connect to John 10.0.0.102 on port 22&lt;br&gt;-NT means no terminal so we can keep tunneling through without exiting session and breaking down whole tunnel" style="text;html=1;align=center;verticalAlign=middle;resizable=0;points=[];autosize=1;fillColor=#f5f5f5;fontColor=#333333;strokeColor=#666666;" vertex="1" parent="1">
          <mxGeometry x="50" y="130" width="630" height="80" as="geometry" />
        </mxCell>
        <mxCell id="FNEyyfUixkqxjhdoB9px-17" value="" style="shape=flexArrow;endArrow=classic;html=1;rounded=0;exitX=0.5;exitY=1;exitDx=0;exitDy=0;" edge="1" parent="1" source="FNEyyfUixkqxjhdoB9px-12" target="FNEyyfUixkqxjhdoB9px-13">
          <mxGeometry width="50" height="50" relative="1" as="geometry">
            <mxPoint x="355" y="130" as="sourcePoint" />
            <mxPoint x="355" y="260" as="targetPoint" />
          </mxGeometry>
        </mxCell>
        <mxCell id="FNEyyfUixkqxjhdoB9px-18" value="" style="shape=flexArrow;endArrow=classic;html=1;rounded=0;exitX=0.5;exitY=1;exitDx=0;exitDy=0;" edge="1" parent="1" source="FNEyyfUixkqxjhdoB9px-13" target="FNEyyfUixkqxjhdoB9px-15">
          <mxGeometry width="50" height="50" relative="1" as="geometry">
            <mxPoint x="355" y="320" as="sourcePoint" />
            <mxPoint x="351" y="440" as="targetPoint" />
          </mxGeometry>
        </mxCell>
        <mxCell id="FNEyyfUixkqxjhdoB9px-6" value="Tunnel from John to Mike&lt;br&gt;ssh john@localhost -p 2222 -L 3333:10.0.0.103:22&lt;br&gt;use John&#39;s (localhost) on port 2222 (on internet host) and create local bind (on internet host) at 3333&lt;br&gt;on the other end is mike (10.0.103:22)&amp;nbsp;" style="text;html=1;align=center;verticalAlign=middle;resizable=0;points=[];autosize=1;strokeColor=#666666;fillColor=#f5f5f5;fontColor=#333333;" vertex="1" parent="1">
          <mxGeometry x="70" y="330" width="550" height="60" as="geometry" />
        </mxCell>
        <mxCell id="FNEyyfUixkqxjhdoB9px-9" value="ssh&amp;nbsp; mike@localhost -p 3333 -L 9999:10.0.0.104 80" style="text;html=1;align=center;verticalAlign=middle;resizable=0;points=[];autosize=1;strokeColor=#666666;fillColor=#f5f5f5;fontColor=#333333;" vertex="1" parent="1">
          <mxGeometry x="200" y="520" width="290" height="20" as="geometry" />
        </mxCell>
      </root>
    </mxGraphModel>
  </diagram>
</mxfile>
